<svg xmlns="http://www.w3.org/2000/svg" xmlns:xlink="http://www.w3.org/1999/xlink"><defs>
<linearGradient id="paint0_linear_22728_11332" x1="521.823" y1="798.999" x2="268.503" y2="516.696" gradientUnits="userSpaceOnUse">
<stop stop-color="#F0145A"/>
<stop offset="1" stop-color="#693264"/>
</linearGradient>
<clipPath id="clip0_22728_11332">
<rect width="697" height="799" fill="white"/>
</clipPath>
</defs><symbol id="arrow-down" viewBox="0 0 20 12">
<path d="M1 1L10 10L19 1" stroke="white" stroke-width="2"/>
</symbol><symbol id="arrow-right" viewBox="0 0 8 11">
<path d="M1.5 1L6 5.5L1.5 10" stroke="#24A3FF" stroke-width="2"/>
</symbol><symbol id="body-img" viewBox="0 0 697 799">
<g clip-path="url(#clip0_22728_11332)">
<path fill-rule="evenodd" clip-rule="evenodd" d="M245.112 340H432.082C485.793 340 530.618 362.912 558.49 401.63C586.34 440.35 587.199 504.956 570.958 555.498L550.194 620.023C541.522 646.966 500.918 774.384 493 799H391C391 799 392.559 800.366 477.767 535.5C485.29 512.126 489.586 474.185 477.767 457.777C465.968 441.37 446.06 431.66 419.718 431.66H266.886C236.876 431.66 210.283 451.178 200.999 480.005L245.112 340Z" fill="url(#paint0_linear_22728_11332)"/>
<path fill-rule="evenodd" clip-rule="evenodd" d="M99.3445 799H-0.369385C84.4982 532.509 170.329 266.331 255.698 0H355.276C354.856 1.33198 354.431 2.6675 353.999 4.00646C215.866 429.03 262.985 285.497 99.3445 799Z" fill="#F0145A"/>
</g>

</symbol><symbol id="close" viewBox="0 0 32 32">
<path d="M7 7L25 25" stroke="#EC6F5D" stroke-width="2"/>
<path d="M25 7L7 25" stroke="#EC6F5D" stroke-width="2"/>
</symbol><symbol id="fb" viewBox="0 0 24 25">
<path d="M24 12.5733C24 5.90541 18.6274 0.5 12 0.5C5.37258 0.5 0 5.90541 0 12.5733C0 18.5995 4.38823 23.5943 10.125 24.5V16.0633H7.07813V12.5733H10.125V9.91343C10.125 6.88755 11.9165 5.21615 14.6576 5.21615C15.9705 5.21615 17.3438 5.45195 17.3438 5.45195V8.42313H15.8306C14.3399 8.42313 13.875 9.35379 13.875 10.3086V12.5733H17.2031L16.6711 16.0633H13.875V24.5C19.6118 23.5943 24 18.5995 24 12.5733Z" fill="#B3B3BA"/>
</symbol><symbol id="footer-fb" viewBox="0 0 38 38">
<path d="M38 19.1161C38 8.55857 29.4934 0 19 0C8.50658 0 0 8.55857 0 19.1161C0 28.6575 6.94803 36.5659 16.0312 38V24.6419H11.207V19.1161H16.0312V14.9046C16.0312 10.1136 18.8678 7.46723 23.2078 7.46723C25.2866 7.46723 27.4609 7.84059 27.4609 7.84059V12.545H25.0651C22.7048 12.545 21.9688 14.0185 21.9688 15.5302V19.1161H27.2383L26.3959 24.6419H21.9688V38C31.052 36.5659 38 28.6575 38 19.1161Z" fill="#24A3FF"/>
</symbol><symbol id="Hamburger" viewBox="0 0 32 33">
<path d="M7 10.5H25" stroke="white" stroke-width="2"/>
<path d="M7 16.5H25" stroke="white" stroke-width="2"/>
<path d="M7 22.5H25" stroke="white" stroke-width="2"/>
</symbol><symbol id="Slash-s" viewBox="0 0 12 26">
<path fill-rule="evenodd" clip-rule="evenodd" d="M8.72827 0H11.9505L3.55574 26H0.333496L8.72827 0Z" fill="#F0145A"/>
</symbol><symbol id="Slash" viewBox="0 0 21 47">
<path fill-rule="evenodd" clip-rule="evenodd" d="M15.1752 0H21L5.82482 47H0L15.1752 0Z" fill="#F0145A"/>
</symbol></svg>